<?xml version="1.0" encoding="UTF-8" standalone="no"?>
<svg xmlns="http://www.w3.org/2000/svg"
     xmlns:xlink="http://www.w3.org/1999/xlink"
     width="576px" height="432px" viewBox="0 0 576 432">
<title>glps_renderer figure</title>
<desc>
Creator: GL2PS 1.3.9, (C) 1999-2015 C. Geuzaine
For: Octave
CreationDate: Fri Sep 15 23:46:15 2017
</desc>
<defs>
</defs>
<g shape-rendering="crispEdges">
<polygon fill="#ffffff" points="74.88,384.48 521.28,384.48 74.88,32.4"/>
<polygon fill="#ffffff" points="521.28,384.48 521.28,32.4 74.88,32.4"/>
<polyline fill="none" stroke="#000000" stroke-width="0.5" stroke-dasharray="16,0" points="74.88,384.48 521.28,384.48"/>
<polyline fill="none" stroke="#000000" stroke-width="0.5" stroke-dasharray="16,0" points="74.88,32.4 521.28,32.4"/>
<polyline fill="none" stroke="#000000" stroke-width="0.5" stroke-dasharray="16,0" points="74.88,384.48 74.88,32.4"/>
<polyline fill="none" stroke="#000000" stroke-width="0.5" stroke-dasharray="16,0" points="521.28,384.48 521.28,32.4"/>
<polyline fill="none" stroke="#000000" stroke-width="0.5" stroke-dasharray="16,0" points="74.88,384.48 74.88,380.015"/>
<polyline fill="none" stroke="#000000" stroke-width="0.5" stroke-dasharray="16,0" points="74.88,32.4 74.88,36.865"/>
<polyline fill="none" stroke="#000000" stroke-width="0.5" stroke-dasharray="16,0" points="164.16,384.48 164.16,380.015"/>
<polyline fill="none" stroke="#000000" stroke-width="0.5" stroke-dasharray="16,0" points="164.16,32.4 164.16,36.865"/>
<polyline fill="none" stroke="#000000" stroke-width="0.5" stroke-dasharray="16,0" points="253.44,384.48 253.44,380.015"/>
<polyline fill="none" stroke="#000000" stroke-width="0.5" stroke-dasharray="16,0" points="253.44,32.4 253.44,36.865"/>
<polyline fill="none" stroke="#000000" stroke-width="0.5" stroke-dasharray="16,0" points="342.72,384.48 342.72,380.015"/>
<polyline fill="none" stroke="#000000" stroke-width="0.5" stroke-dasharray="16,0" points="342.72,32.4 342.72,36.865"/>
<polyline fill="none" stroke="#000000" stroke-width="0.5" stroke-dasharray="16,0" points="432,384.48 432,380.015"/>
<polyline fill="none" stroke="#000000" stroke-width="0.5" stroke-dasharray="16,0" points="432,32.4 432,36.865"/>
<polyline fill="none" stroke="#000000" stroke-width="0.5" stroke-dasharray="16,0" points="521.28,384.48 521.28,380.015"/>
<polyline fill="none" stroke="#000000" stroke-width="0.5" stroke-dasharray="16,0" points="521.28,32.4 521.28,36.865"/>
<text fill="#000000" x="74.88" y="389.481" font-size="10" text-anchor="middle" baseline-shift="-10" font-family="Helvetica">0</text>
<text fill="#000000" x="164.16" y="389.481" font-size="10" text-anchor="middle" baseline-shift="-10" font-family="Helvetica">20</text>
<text fill="#000000" x="253.44" y="389.481" font-size="10" text-anchor="middle" baseline-shift="-10" font-family="Helvetica">40</text>
<text fill="#000000" x="342.72" y="389.481" font-size="10" text-anchor="middle" baseline-shift="-10" font-family="Helvetica">60</text>
<text fill="#000000" x="432" y="389.481" font-size="10" text-anchor="middle" baseline-shift="-10" font-family="Helvetica">80</text>
<text fill="#000000" x="521.28" y="389.481" font-size="10" text-anchor="middle" baseline-shift="-10" font-family="Helvetica">100</text>
<polyline fill="none" stroke="#000000" stroke-width="0.5" stroke-dasharray="16,0" points="74.88,384.48 79.348,384.48"/>
<polyline fill="none" stroke="#000000" stroke-width="0.5" stroke-dasharray="16,0" points="521.28,384.48 516.812,384.48"/>
<polyline fill="none" stroke="#000000" stroke-width="0.5" stroke-dasharray="16,0" points="74.88,325.8 79.348,325.8"/>
<polyline fill="none" stroke="#000000" stroke-width="0.5" stroke-dasharray="16,0" points="521.28,325.8 516.812,325.8"/>
<polyline fill="none" stroke="#000000" stroke-width="0.5" stroke-dasharray="16,0" points="74.88,267.12 79.348,267.12"/>
<polyline fill="none" stroke="#000000" stroke-width="0.5" stroke-dasharray="16,0" points="521.28,267.12 516.812,267.12"/>
<polyline fill="none" stroke="#000000" stroke-width="0.5" stroke-dasharray="16,0" points="74.88,208.44 79.348,208.44"/>
<polyline fill="none" stroke="#000000" stroke-width="0.5" stroke-dasharray="16,0" points="521.28,208.44 516.812,208.44"/>
<polyline fill="none" stroke="#000000" stroke-width="0.5" stroke-dasharray="16,0" points="74.88,149.76 79.348,149.76"/>
<polyline fill="none" stroke="#000000" stroke-width="0.5" stroke-dasharray="16,0" points="521.28,149.76 516.812,149.76"/>
<polyline fill="none" stroke="#000000" stroke-width="0.5" stroke-dasharray="16,0" points="74.88,91.08 79.348,91.08"/>
<polyline fill="none" stroke="#000000" stroke-width="0.5" stroke-dasharray="16,0" points="521.28,91.08 516.812,91.08"/>
<polyline fill="none" stroke="#000000" stroke-width="0.5" stroke-dasharray="16,0" points="74.88,32.4 79.348,32.4"/>
<polyline fill="none" stroke="#000000" stroke-width="0.5" stroke-dasharray="16,0" points="521.28,32.4 516.812,32.4"/>
<text fill="#000000" x="69.8755" y="384.48" font-size="10" text-anchor="end" baseline-shift="-5" font-family="Helvetica">0</text>
<text fill="#000000" x="69.8755" y="325.8" font-size="10" text-anchor="end" baseline-shift="-5" font-family="Helvetica">0.5</text>
<text fill="#000000" x="69.8755" y="267.12" font-size="10" text-anchor="end" baseline-shift="-5" font-family="Helvetica">1</text>
<text fill="#000000" x="69.8755" y="208.44" font-size="10" text-anchor="end" baseline-shift="-5" font-family="Helvetica">1.5</text>
<text fill="#000000" x="69.8755" y="149.76" font-size="10" text-anchor="end" baseline-shift="-5" font-family="Helvetica">2</text>
<text fill="#000000" x="69.8755" y="91.08" font-size="10" text-anchor="end" baseline-shift="-5" font-family="Helvetica">2.5</text>
<text fill="#000000" x="69.8755" y="32.4" font-size="10" text-anchor="end" baseline-shift="-5" font-family="Helvetica">3</text>
<polyline fill="none" stroke="#0000ff" stroke-width="0.5" points="79.344,276.413 83.808,365.701 88.272,277.137 92.736,373.697 97.2,352.407 101.664,356.486 106.128,283.168 110.592,320.408 115.056,321.956 119.52,298.64 123.984,315.464 128.448,348.192 132.912,332.435 137.376,331.546 141.84,354.008 146.304,361.09 150.768,333.276 155.232,313.118 159.696,290.805 164.16,359.979 168.624,327.162 173.088,289.437 177.552,322.903 182.016,350.909 186.48,362.962 190.944,362.813 195.408,302.658 199.872,300.71 204.336,274.746 208.8,284.623 213.264,270.04 217.728,369.168 222.192,353.965 226.656,371.852 231.12,361.665 235.584,355.464 240.048,332.473 244.512,284.452 248.976,270.945 253.44,332.607 257.904,330.093 262.368,294.818 266.832,369.239 271.296,328.641 275.76,316.204 280.224,378.475 284.688,308.695 289.152,323.933 293.616,368.076 298.08,373.061 302.544,293.103 307.008,302.861 311.472,300.807 315.936,333.461 320.4,284.528 324.864,272.582 329.328,319.182 333.792,306.77 338.256,366.004 342.72,278.947 347.184,316.234 351.648,345.632 356.112,317.7 360.576,378.885 365.04,325.128 369.504,346.516 373.968,303.661 378.432,382.75 382.896,316.342 387.36,281.707 391.824,308.324 396.288,368.655 400.752,333.357 405.216,275.246 409.68,325.251 414.144,360.808 418.608,301.491 423.072,268.07 427.536,276.671 432,380.909 436.464,285.285 440.928,268.17 445.392,292.59 449.856,297.192 454.32,351.838 458.784,313.081 463.248,338.13 467.712,305.452 472.176,268.254 476.64,347.667 481.104,301.082 485.568,349.408 490.032,354.54 494.496,321.465 498.96,338.23 503.424,351 507.888,326.507 512.352,348.582 516.816,345.304 521.28,340.367"/>
<polyline fill="none" stroke="#007f00" stroke-width="0.5" points="83.808,224.449 88.272,223.077 92.736,214.667 97.2,215.83 101.664,193.647 106.128,195.81 110.592,223.381 115.056,219.585 119.52,228.979 123.984,216.207 128.448,207.42 132.912,182.582 137.376,191.841 141.84,196.753 146.304,192.449 150.768,190.125 155.232,221.332 159.696,247.29 164.16,250.078 168.624,218.5 173.088,210.286 177.552,177.683 182.016,184.71 186.48,170.657 190.944,171.442 195.408,173.026 199.872,169.198 204.336,204.77 208.8,212.182 213.264,247.939 217.728,216.938 222.192,211.289 226.656,176.725 231.12,174.27 235.584,189.356 240.048,216.792 244.512,218.152 248.976,207.64 253.44,198.617 257.904,224.109 262.368,231.739 266.832,229.768 271.296,237.237 275.76,236.612 280.224,254.835 284.688,248.109 289.152,248.387 293.616,234.996 298.08,219.252 302.544,217.716 307.008,215.815 311.472,206.561 315.936,209.09 320.4,193.02 324.864,211.239 329.328,189.285 333.792,206.347 338.256,203.021 342.72,234.767 347.184,244.091 351.648,222.325 356.112,187.792 360.576,171.541 365.04,178.562 369.504,178.035 373.968,171.384 378.432,169.795 382.896,197.133 387.36,214.689 391.824,247.562 396.288,236.056 400.752,240.04 405.216,216.217 409.68,205.612 414.144,209.018 418.608,213.67 423.072,224.325 427.536,197.016 432,204.641 436.464,197.288 440.928,193.926 445.392,190.419 449.856,216.736 454.32,247.157 458.784,228.51 463.248,220.063 467.712,186.152 472.176,205.894 476.64,215.546 481.104,233.722 485.568,242.804 490.032,226.997 494.496,236.35 498.96,211.829 503.424,213.635 507.888,222.325 512.352,214.573 516.816,218.004"/>
<polyline fill="none" stroke="#ff0000" stroke-width="0.5" points="88.272,103.371 92.736,100.498 97.2,90.6883 101.664,84.4025 106.128,86.9195 110.592,95.5654 115.056,106.622 119.52,104.23 123.984,100.175 128.448,84.7097 132.912,76.5877 137.376,73.032 141.84,76.3209 146.304,75.7489 150.768,83.9418 155.232,102.222 159.696,122.207 164.16,121.263 168.624,108.928 173.088,84.7963 177.552,73.5331 182.016,60.3236 186.48,58.2431 190.944,54.3483 195.408,53.862 199.872,64.9714 204.336,78.0234 208.8,104.27 213.264,108.326 217.728,108.029 222.192,84.2908 226.656,70.0682 231.12,62.7572 235.584,76.113 240.048,90.7404 244.512,96.8349 248.976,90.7764 253.44,92.7621 257.904,100.795 262.368,111.179 266.832,115.555 271.296,117.179 275.76,125.535 280.224,129.159 284.688,133.084 289.152,126.471 293.616,116.852 298.08,106.628 302.544,100.234 307.008,96.004 311.472,93.1285 315.936,85.5303 320.4,87.0896 324.864,80.488 329.328,84.9305 333.792,82.1909 338.256,97.3517 342.72,109.933 347.184,116.368 351.648,100.709 356.112,76.5258 360.576,61.9382 365.04,58.6859 369.504,58.6335 373.968,55.7112 378.432,62.0771 382.896,76.5121 387.36,102.435 391.824,115.409 396.288,123.859 400.752,113.411 405.216,103.263 409.68,92.9224 414.144,92.0734 418.608,98.3109 423.072,94.3103 427.536,91.3007 432,82.2884 436.464,81.2584 440.928,76.5176 445.392,83.0002 449.856,100.744 454.32,113.441 458.784,114.55 463.248,94.215 467.712,86.6765 472.176,85.1707 476.64,101.027 481.104,113.33 485.568,117.148 490.032,118.024 494.496,107.699 498.96,103.244 503.424,98.5697 507.888,99.4843 512.352,100.941"/>
</g>
</svg>
